<?xml version="1.0" encoding="utf-8"?>
<!-- Generator: Adobe Adobe Illustrator 24.2.0, SVG Export Plug-In . SVG Version: 6.00 Build 0)  -->
<svg version="1.1" id="Layer_1" xmlns="http://www.w3.org/2000/svg" xmlns:xlink="http://www.w3.org/1999/xlink" x="0px" y="0px"
	 width="24px" height="24px" viewBox="0 0 16.9 16.9" style="enable-background:new 0 0 16.9 16.9;" xml:space="preserve">
<style type="text/css">
	.st0{fill:none;stroke:#FFFFFF;stroke-miterlimit:10;}
	.st1{fill:#FFFFFF;}
</style>
<path d="M13.9,3.7l-2.2-2.2L9.4,3.7l0.7,0.7l1-1v3.4c0,2.4-2,4.3-4.4,4.3H3.4l1.1-1L3.8,9.3l-2.2,2.2l2.2,2.2L4.4,13l-1.1-1h3.5
	c1.4,0,2.8-0.5,3.8-1.5s1.6-2.3,1.6-3.7V3.3l1.1,1.1L13.9,3.7z"/>
<polygon points="1.5,11.5 4.4,8.6 4.4,14.3 "/>
<polygon points="11.7,1.5 14.6,4.4 8.8,4.4 "/>
<line class="st0" x1="11.9" y1="0.7" x2="8" y2="4.5"/>
<line class="st0" x1="11.4" y1="0.5" x2="15.3" y2="4.5"/>
<line class="st0" x1="12.1" y1="4.9" x2="14.9" y2="4.9"/>
<line class="st0" x1="8.4" y1="4.9" x2="11.2" y2="4.9"/>
<line class="st0" x1="12.7" y1="4.4" x2="12.7" y2="6.8"/>
<line class="st0" x1="10.7" y1="4.4" x2="10.7" y2="6.8"/>
<polygon class="st1" points="15.6,4.1 14.3,5.4 17,5.4 "/>
<polygon class="st1" points="7.7,4.1 6.4,5.4 9.1,5.4 "/>
<polygon class="st1" points="4,7.7 5.5,9.2 5.5,6.3 "/>
<polygon class="st1" points="3.8,15.1 5.4,16.7 5.4,13.5 "/>
<path class="st0" d="M10.7,6.8c0,1.4-0.9,2.5-1.9,3.2"/>
<path class="st0" d="M12.7,6.8c0,1.4-0.9,3.2-1.6,3.9"/>
<path class="st0" d="M8.8,9.9c-1.2,0.7-1.5,0.6-4.3,0.5"/>
<path class="st0" d="M11.1,10.7c-0.4,0.4-1.7,1.7-4,1.8"/>
<line class="st0" x1="4.9" y1="11" x2="4.9" y2="8.4"/>
<line class="st0" x1="4.9" y1="14.6" x2="4.9" y2="12"/>
<line class="st0" x1="4.5" y1="12.5" x2="7.2" y2="12.5"/>
<line class="st0" x1="4.9" y1="7.5" x2="1.1" y2="11.2"/>
<line class="st0" x1="4.7" y1="15.3" x2="0.5" y2="11.1"/>
</svg>
